{"glyphs":{":":{"x_min":0,"x_max":345,"ha":345,"o":"m 172 -8 q 140 -8 117 15 q 94 38 94 71 q 94 104 117 126 q 139 149 172 149 q 205 149 228 126 q 251 104 251 71 q 251 38 228 15 q 205 -8 172 -8 z m 172 262 q 140 262 117 285 q 94 307 94 340 q 94 373 117 396 q 140 419 172 419 q 205 419 228 396 q 251 373 251 340 q 251 307 228 285 q 205 262 172 262 z"},"$":{"x_min":0,"x_max":551,"ha":551,"o":"m 269 426 l 297 584 l 295 584 q 259 584 239 563 q 218 542 218 507 q 218 485 229 467 q 241 448 269 426 z m 243 70 q 282 70 305 90 q 328 111 328 145 q 328 168 314 188 q 300 207 271 225 z m 216 -95 l 178 -95 l 194 -2 q 143 12 105 42 q 66 72 39 119 l 116 168 q 134 132 156 110 q 179 87 207 76 l 236 241 q 135 291 93 340 q 52 389 52 456 q 52 547 115 604 q 179 660 282 660 q 293 660 299 660 q 305 660 310 659 l 323 730 l 361 730 l 347 652 q 394 638 428 608 q 462 579 486 533 l 420 491 q 410 522 388 545 q 366 567 334 579 l 303 409 q 414 354 454 308 q 494 262 494 198 q 494 106 427 50 q 361 -7 251 -7 q 248 -7 241 -6 q 235 -6 231 -6 z"},"?":{"x_min":0,"x_max":486,"ha":486,"o":"m 55 500 q 55 503 54 507 q 54 511 54 518 q 54 588 102 627 q 149 667 233 667 q 321 667 375 618 q 430 568 430 489 q 430 444 410 406 q 389 368 348 337 q 336 328 309 311 q 282 294 268 284 q 258 277 252 265 q 245 253 239 233 l 224 179 l 180 179 l 166 238 q 160 264 156 286 q 153 308 153 322 q 153 340 163 356 q 172 373 202 399 q 210 407 227 420 q 287 471 287 512 q 287 550 263 573 q 240 596 201 596 q 163 596 142 573 q 121 549 121 506 l 121 500 z m 202 -8 q 171 -8 149 14 q 127 36 127 68 q 127 100 149 122 q 171 144 202 144 q 234 144 256 122 q 279 100 279 68 q 279 37 256 14 q 234 -8 202 -8 z"},"<":{"x_min":0,"x_max":833,"ha":833,"o":"m 704 574 l 704 484 l 248 298 l 704 112 l 704 23 l 129 259 l 129 337 z"},"'":{"x_min":0,"x_max":163,"ha":163,"o":"m 42 701 l 122 701 l 122 429 l 42 429 z"},"=":{"x_min":0,"x_max":833,"ha":833,"o":"m 124 238 l 709 238 l 709 157 l 124 157 z m 124 440 l 709 440 l 709 358 l 124 358 z"},"a":{"x_min":0,"x_max":440,"ha":440,"o":"m 11 0 l 124 353 q 141 406 162 426 q 183 447 219 447 q 253 447 272 429 q 291 411 307 360 l 424 0 l 276 0 l 252 79 l 108 79 l 85 0 z m 126 139 l 234 139 l 182 327 z"},"L":{"x_min":0,"x_max":523,"ha":523,"o":"m 79 0 l 79 653 l 262 653 l 262 88 l 499 88 l 499 0 z"},"3":{"x_min":0,"x_max":521,"ha":521,"o":"m 37 0 l 241 280 q 249 291 252 300 q 256 310 256 319 q 256 342 240 352 q 223 363 187 363 l 78 363 l 234 576 l 11 576 l 11 653 l 487 653 l 328 429 l 334 429 q 393 429 427 401 q 461 374 461 326 q 461 304 449 275 q 437 245 415 214 l 263 0 z"},";":{"x_min":0,"x_max":345,"ha":345,"o":"m 172 262 q 140 262 117 285 q 94 307 94 340 q 94 373 117 396 q 140 419 172 419 q 205 419 228 396 q 251 373 251 340 q 251 307 228 285 q 205 262 172 262 z m 81 -194 l 95 54 q 98 106 117 132 q 136 157 172 157 q 205 157 228 136 q 251 115 251 86 q 251 71 245 54 q 240 37 229 20 l 97 -194 z"},"J":{"x_min":0,"x_max":384,"ha":384,"o":"m -8 85 l 11 85 q 78 85 102 114 q 125 142 125 245 l 125 653 l 308 653 l 308 217 q 308 100 250 49 q 192 -2 57 -2 q 31 -2 18 -1 q 4 -1 -8 0 z"},"V":{"x_min":0,"x_max":519,"ha":519,"o":"m 257 -16 l -12 653 l 178 653 l 311 300 l 448 653 l 534 653 z"},"\"":{"x_min":0,"x_max":314,"ha":314,"o":"m 193 701 l 273 701 l 273 429 l 193 429 z m 42 701 l 122 701 l 122 429 l 42 429 z"},"7":{"x_min":0,"x_max":505,"ha":505,"o":"m 25 0 l 285 574 l 5 574 l 5 653 l 468 653 l 468 561 l 218 0 z"},"S":{"x_min":0,"x_max":543,"ha":543,"o":"m 131 166 q 151 119 181 93 q 211 68 247 68 q 284 68 308 90 q 332 112 332 145 q 332 172 314 194 q 296 215 255 238 l 229 252 q 140 299 122 315 q 85 347 70 379 q 54 411 54 454 q 54 548 117 608 q 181 668 282 668 q 354 668 407 635 q 461 603 491 542 l 417 490 q 397 537 367 561 q 337 584 296 584 q 261 584 239 562 q 216 541 216 509 q 216 481 235 461 q 253 440 307 413 l 319 407 q 419 357 440 340 q 476 310 492 277 q 508 244 508 200 q 508 104 441 43 q 374 -17 266 -17 q 189 -17 131 17 q 72 50 41 112 z"},"}":{"x_min":0,"x_max":500,"ha":500,"o":"m 74 721 l 96 721 q 152 721 184 716 q 215 710 237 697 q 265 681 276 650 q 287 620 287 550 l 287 429 q 287 359 312 330 q 338 302 400 302 q 403 302 410 302 q 417 303 421 303 l 421 216 q 417 216 410 216 q 403 217 400 217 q 338 217 313 188 q 287 159 287 89 l 287 -32 q 287 -102 276 -132 q 265 -162 237 -178 q 216 -191 184 -197 q 152 -202 96 -202 l 74 -202 l 74 -116 q 78 -116 85 -117 q 93 -117 96 -117 q 149 -117 168 -97 q 187 -76 187 -11 l 187 106 q 187 181 209 213 q 231 245 287 259 q 231 272 209 304 q 187 336 187 412 l 187 530 q 187 594 168 615 q 150 635 97 635 q 94 635 86 634 q 78 634 74 634 z"},"Z":{"x_min":0,"x_max":590,"ha":590,"o":"m 31 565 l 31 653 l 580 653 l 266 88 l 561 88 l 561 0 l 13 0 l 326 565 z"},"x":{"x_min":0,"x_max":410,"ha":410,"o":"m 9 0 l 144 192 l 10 433 l 165 433 l 229 308 l 309 433 l 396 433 l 267 247 l 406 0 l 251 0 l 181 133 l 98 0 z"},")":{"x_min":0,"x_max":394,"ha":394,"o":"m 74 -212 q 112 -131 132 -22 q 152 87 152 215 q 152 343 132 452 q 112 561 74 642 l 116 668 q 200 582 246 465 q 291 348 291 215 q 291 83 246 -34 q 201 -151 116 -237 z"},"&":{"x_min":0,"x_max":671,"ha":671,"o":"m 286 593 l 349 493 q 368 503 378 518 q 387 532 387 550 q 387 575 371 592 q 354 609 330 609 q 315 609 305 605 q 294 602 286 593 z m 402 106 l 264 313 q 239 300 226 278 q 213 255 213 225 q 213 171 252 130 q 291 90 342 90 q 357 90 372 94 q 387 98 402 106 z m 475 0 l 444 47 q 407 16 362 0 q 318 -15 264 -15 q 166 -15 101 44 q 36 103 36 192 q 36 255 74 304 q 113 354 202 404 l 144 511 q 144 579 191 623 q 238 667 310 667 q 375 667 416 630 q 457 592 457 534 q 457 501 442 473 q 428 445 399 422 l 521 235 q 533 255 538 280 q 544 305 544 337 q 544 348 542 362 q 541 375 538 392 l 604 392 q 605 382 605 371 q 606 360 606 339 q 606 285 595 245 q 584 204 562 173 l 677 0 z"},"_":{"x_min":0,"x_max":500,"ha":500,"o":"m 0 -152 l 500 -152 l 500 -236 l 0 -236 z"},"v":{"x_min":0,"x_max":435,"ha":435,"o":"m 414 433 l 319 83 q 305 30 281 7 q 257 -16 217 -16 q 176 -16 153 6 q 130 28 114 82 l 12 433 l 162 433 l 252 99 l 340 433 z"},"O":{"x_min":0,"x_max":764,"ha":764,"o":"m 232 325 q 232 203 272 134 q 312 65 382 65 q 452 65 492 134 q 532 203 532 325 q 532 448 492 516 q 453 585 382 585 q 312 585 272 516 q 232 448 232 325 z m 382 666 q 450 666 512 644 q 574 622 619 581 q 673 533 701 468 q 729 402 729 324 q 729 247 701 182 q 673 117 619 69 q 574 28 512 6 q 450 -16 382 -16 q 314 -16 252 6 q 190 29 145 69 q 90 118 63 183 q 35 248 35 326 q 35 403 63 468 q 91 534 145 582 q 189 622 251 644 q 313 666 382 666 z"},"(":{"x_min":0,"x_max":394,"ha":394,"o":"m 321 642 q 283 561 262 451 q 242 341 242 215 q 242 88 262 -21 q 282 -130 321 -212 l 278 -237 q 194 -151 149 -35 q 104 82 104 215 q 104 348 149 465 q 194 583 278 668 z"},"C":{"x_min":0,"x_max":704,"ha":704,"o":"m 680 159 q 639 74 563 29 q 487 -16 384 -16 q 317 -16 260 3 q 203 22 157 59 q 96 108 66 174 q 35 240 35 320 q 35 472 135 570 q 234 667 390 667 q 480 667 547 631 q 613 595 662 520 l 579 459 q 549 522 506 554 q 463 586 408 586 q 324 586 277 518 q 231 450 231 325 q 231 210 284 140 q 337 70 424 70 q 479 70 523 105 q 568 141 602 210 z"},"W":{"x_min":0,"x_max":797,"ha":797,"o":"m 536 -16 l 399 324 l 257 -16 l -12 653 l 178 653 l 312 293 l 361 416 l 267 653 l 457 653 l 590 300 l 727 653 l 813 653 z"},"A":{"x_min":0,"x_max":634,"ha":634,"o":"m 183 276 l 344 276 l 260 510 z m -3 0 l 221 653 l 398 653 l 637 0 l 443 0 l 374 193 l 155 193 l 90 0 z"},"f":{"x_min":0,"x_max":306,"ha":306,"o":"m 67 545 q 67 631 98 665 q 130 699 208 699 l 332 699 l 332 634 l 273 634 q 235 634 221 619 q 208 605 208 565 l 208 433 l 319 433 l 319 368 l 208 368 l 208 0 l 67 0 z"},"Q":{"x_min":0,"x_max":764,"ha":764,"o":"m 302 138 l 462 138 l 462 90 q 497 105 515 163 q 532 222 532 325 q 532 448 492 516 q 453 585 382 585 q 312 585 272 516 q 232 448 232 325 q 232 222 250 163 q 267 105 302 90 z m 302 -89 l 302 -7 q 177 21 106 110 q 35 198 35 326 q 35 403 63 469 q 91 534 145 582 q 190 622 251 644 q 313 666 382 666 q 450 666 512 644 q 574 622 619 581 q 673 533 701 468 q 729 403 729 325 q 729 198 658 109 q 588 21 463 -8 l 463 -89 z"},"w":{"x_min":0,"x_max":691,"ha":691,"o":"m 595 433 l 669 433 l 575 83 q 562 33 537 9 q 513 -16 478 -16 q 444 -16 421 8 q 399 32 385 82 l 343 236 l 304 83 q 292 34 267 9 q 243 -16 208 -16 q 174 -16 151 7 q 129 31 114 82 l 12 433 l 162 433 l 249 107 l 308 351 l 283 433 l 432 433 l 516 120 z"},"-":{"x_min":0,"x_max":343,"ha":343,"o":"m 49 108 l 49 203 l 293 332 l 293 237 z"},"E":{"x_min":0,"x_max":557,"ha":557,"o":"m 79 0 l 79 653 l 488 653 l 488 565 l 262 565 l 262 375 l 476 375 l 476 287 l 262 287 l 262 88 l 500 88 l 500 0 z"},"s":{"x_min":0,"x_max":391,"ha":391,"o":"m 50 0 l 50 65 l 165 65 q 205 65 221 76 q 237 87 237 113 q 237 146 172 166 q 152 171 141 175 q 77 196 53 222 q 30 249 30 294 q 30 362 74 397 q 119 433 204 433 l 317 433 l 317 368 l 219 368 q 195 368 182 360 q 168 351 168 336 q 168 309 225 292 q 237 287 244 285 q 313 263 337 234 q 362 205 362 153 q 362 82 317 41 q 272 0 194 0 z"},">":{"x_min":0,"x_max":833,"ha":833,"o":"m 129 574 l 704 337 l 704 259 l 129 23 l 129 112 l 585 298 l 129 484 z"},"l":{"x_min":0,"x_max":306,"ha":306,"o":"m 208 134 q 208 94 221 79 q 235 65 273 65 l 308 65 l 308 0 l 188 0 q 121 0 94 29 q 67 58 67 132 l 67 699 l 208 699 z"},"8":{"x_min":0,"x_max":618,"ha":618,"o":"m 303 68 q 332 68 349 102 q 366 137 366 195 q 366 249 351 279 q 335 309 308 309 q 280 309 264 274 q 247 239 247 180 q 247 127 262 97 q 277 68 303 68 z m 314 372 q 340 372 357 403 q 373 435 373 486 q 373 535 358 563 q 344 591 319 591 q 293 591 276 559 q 260 528 260 475 q 260 426 274 399 q 289 372 314 372 z m 189 347 q 145 373 124 407 q 102 441 102 486 q 102 565 165 616 q 227 667 325 667 q 417 667 474 621 q 532 574 532 501 q 532 451 508 413 q 484 375 440 355 q 493 337 522 297 q 551 258 551 203 q 551 108 479 46 q 407 -16 296 -16 q 190 -16 126 38 q 62 93 62 181 q 62 241 94 282 q 125 324 189 347 z"},"\\":{"x_min":0,"x_max":282,"ha":282,"o":"m 283 -93 l 216 -93 l -1 667 l 66 667 z"},"e":{"x_min":0,"x_max":409,"ha":409,"o":"m 155 0 q 104 0 84 22 q 63 44 63 99 l 63 334 q 63 389 84 411 q 104 433 155 433 l 356 433 l 356 368 l 249 368 q 222 368 213 358 q 204 349 204 320 l 204 249 l 340 249 l 340 184 l 204 184 l 204 112 q 204 83 213 74 q 222 65 249 65 l 363 65 l 363 0 z"},"b":{"x_min":0,"x_max":521,"ha":521,"o":"m 204 373 l 204 60 q 276 61 307 97 q 338 133 338 216 q 338 299 307 336 q 275 372 204 373 z m 62 699 l 204 699 l 204 433 l 226 433 q 354 433 423 375 q 491 317 491 209 q 491 107 428 53 q 365 0 245 0 l 62 0 z"},"%":{"x_min":0,"x_max":810,"ha":810,"o":"m 443 162 q 443 230 491 278 q 540 326 608 326 q 677 326 725 278 q 773 230 773 162 q 773 93 725 45 q 677 -2 608 -2 q 539 -2 491 45 q 443 93 443 162 z m 662 159 q 662 218 649 245 q 635 272 607 272 q 581 272 567 245 q 553 218 553 165 q 553 108 566 80 q 580 52 607 52 q 634 52 648 79 q 662 106 662 159 z m 256 486 q 256 544 243 571 q 229 598 201 598 q 174 598 161 571 q 147 543 147 491 q 147 434 160 406 q 173 379 201 379 q 228 379 242 406 q 256 433 256 486 z m 37 489 q 37 558 85 605 q 132 653 201 653 q 270 653 318 605 q 366 558 366 489 q 366 419 318 372 q 271 324 201 324 q 132 324 85 372 q 37 419 37 489 z m 138 -16 l 599 667 l 671 667 l 211 -16 z"},"m":{"x_min":0,"x_max":588,"ha":588,"o":"m 62 0 l 62 374 q 62 411 83 429 q 104 447 146 447 q 179 447 199 432 q 218 417 234 379 l 292 239 l 348 379 q 363 418 382 432 q 401 447 437 447 q 480 447 501 429 q 523 411 523 374 l 523 0 l 384 0 l 384 320 l 259 0 l 254 0 l 132 307 l 132 0 z"},"#":{"x_min":0,"x_max":769,"ha":769,"o":"m 346 416 l 302 292 l 427 292 l 471 416 z m 359 713 l 452 713 l 377 500 l 499 500 l 575 713 l 668 713 l 593 500 l 735 500 l 706 416 l 563 416 l 519 293 l 670 293 l 640 209 l 490 209 l 414 -3 l 321 -3 l 397 209 l 274 209 l 197 -3 l 104 -3 l 180 209 l 34 209 l 64 293 l 209 293 l 253 416 l 99 416 l 129 500 l 283 500 z"},",":{"x_min":0,"x_max":310,"ha":310,"o":"m 63 -194 l 77 54 q 80 106 99 132 q 118 157 154 157 q 187 157 210 136 q 233 115 233 86 q 233 71 227 54 q 222 37 211 20 l 79 -194 z"},"n":{"x_min":0,"x_max":463,"ha":463,"o":"m 132 282 l 132 0 l 62 0 l 62 363 q 62 406 79 427 q 97 447 133 447 q 163 447 186 430 q 209 413 234 373 l 331 216 l 331 433 l 400 433 l 400 56 q 400 17 388 0 q 377 -16 351 -16 q 332 -16 315 -3 q 299 10 276 47 z"},"h":{"x_min":0,"x_max":519,"ha":519,"o":"m 67 0 l 67 699 l 208 699 l 208 284 l 312 284 l 312 433 l 453 433 l 453 0 l 312 0 l 312 214 l 208 214 l 208 0 z"},"z":{"x_min":0,"x_max":387,"ha":387,"o":"m 26 0 l 26 29 l 191 370 l 23 370 l 23 433 l 283 433 q 316 433 331 423 q 345 414 345 391 q 345 380 342 369 q 339 358 334 347 l 194 62 l 371 62 l 371 0 z"},"B":{"x_min":0,"x_max":655,"ha":655,"o":"m 257 295 l 257 81 l 300 81 q 372 81 402 106 q 432 130 432 189 q 432 243 403 269 q 374 295 312 295 z m 257 572 l 257 375 l 297 375 q 363 375 391 397 q 418 420 418 474 q 418 524 391 548 q 364 572 308 572 z m 79 0 l 79 653 l 375 653 q 481 653 542 605 q 603 558 603 475 q 603 416 569 379 q 534 342 467 330 q 543 311 584 269 q 625 227 625 168 q 625 86 567 43 q 509 0 399 0 z"},"K":{"x_min":0,"x_max":606,"ha":606,"o":"m 447 0 l 271 322 l 466 653 l 562 653 l 421 414 l 649 0 z m 79 0 l 79 653 l 262 653 l 262 0 z"},"R":{"x_min":0,"x_max":669,"ha":669,"o":"m 79 0 l 79 653 l 364 653 q 487 653 557 599 q 627 546 627 453 q 627 385 589 342 q 551 299 475 281 l 633 0 l 428 0 l 269 332 l 310 332 q 378 332 411 361 q 444 390 444 449 q 444 512 410 542 q 375 572 303 572 l 257 572 l 257 0 z"},"T":{"x_min":0,"x_max":549,"ha":549,"o":"m 183 0 l 183 565 l 9 565 l 9 653 l 540 653 l 540 565 l 366 565 l 366 0 z"},"P":{"x_min":0,"x_max":626,"ha":626,"o":"m 257 572 l 257 346 l 298 346 q 363 346 395 371 q 426 396 426 448 q 426 503 389 538 q 353 572 294 572 z m 79 0 l 79 653 l 340 653 q 465 653 535 598 q 604 542 604 443 q 604 361 549 313 q 493 265 399 265 l 257 265 l 257 0 z"},"|":{"x_min":0,"x_max":500,"ha":500,"o":"m 207 764 l 294 764 l 294 -236 l 207 -236 z"},"t":{"x_min":0,"x_max":403,"ha":403,"o":"m 131 0 l 131 359 l 15 359 l 15 433 l 388 433 l 388 359 l 272 359 l 272 0 z"},"M":{"x_min":0,"x_max":801,"ha":801,"o":"m 79 0 l 79 653 l 250 653 l 397 301 l 543 653 l 722 653 l 722 0 l 540 0 l 540 429 l 364 0 l 346 0 l 174 410 l 174 0 z"},"g":{"x_min":0,"x_max":516,"ha":516,"o":"m 477 222 l 477 -183 l 343 -183 l 343 15 q 319 0 293 -8 q 268 -16 239 -16 q 148 -16 89 48 q 30 112 30 213 q 30 317 91 382 q 152 447 248 447 q 313 447 357 419 q 401 391 421 336 l 360 301 q 350 341 329 362 q 308 382 278 382 q 232 382 208 340 q 184 297 184 217 q 184 130 204 92 q 224 53 269 53 q 306 53 324 76 q 343 99 343 144 l 343 222 z"},"j":{"x_min":0,"x_max":273,"ha":273,"o":"m 66 433 l 208 433 l 208 -29 q 208 -115 176 -149 q 145 -183 66 -183 l -43 -183 l -43 -118 l 2 -118 q 40 -118 53 -104 q 66 -89 66 -49 z m 63 611 q 63 642 85 663 q 106 685 137 685 q 168 685 189 664 q 211 642 211 611 q 211 580 189 559 q 168 537 137 537 q 107 537 85 559 q 63 581 63 611 z"},"i":{"x_min":0,"x_max":271,"ha":271,"o":"m 64 0 l 64 433 l 205 433 l 205 0 z m 61 611 q 61 642 83 663 q 104 685 135 685 q 166 685 188 664 q 209 642 209 611 q 209 580 187 559 q 166 537 135 537 q 104 537 83 559 q 61 581 61 611 z"},"y":{"x_min":0,"x_max":400,"ha":400,"o":"m -4 433 l 152 433 l 239 227 l 323 433 l 397 433 l 132 -183 l 53 -183 l 162 69 z"},"@":{"x_min":0,"x_max":1000,"ha":1000,"o":"m 573 138 q 546 96 511 76 q 475 56 425 56 q 351 56 311 98 q 272 141 272 220 q 272 334 339 413 q 407 492 502 492 q 545 492 575 475 q 604 458 623 423 l 650 475 l 725 475 l 653 189 q 652 187 652 183 q 649 169 649 165 q 649 146 662 135 q 675 124 696 124 q 721 124 748 139 q 776 154 800 180 q 835 217 854 267 q 872 316 872 372 q 872 496 781 573 q 689 650 542 650 q 475 650 417 635 q 359 620 312 589 q 224 534 176 447 q 128 360 128 254 q 128 102 230 10 q 333 -81 503 -81 q 584 -81 661 -57 q 738 -33 803 12 l 836 -36 q 763 -91 680 -119 q 598 -147 507 -147 q 413 -147 335 -124 q 258 -100 198 -54 q 123 3 85 80 q 48 157 48 255 q 48 335 73 408 q 99 480 148 541 q 220 628 321 674 q 421 719 545 719 q 626 719 699 697 q 771 675 823 635 q 888 585 920 520 q 952 455 952 373 q 952 294 920 226 q 889 157 830 110 q 796 83 757 69 q 717 55 675 55 q 623 55 598 75 q 573 95 573 136 z m 602 345 q 595 386 572 409 q 549 431 512 431 q 450 431 406 368 q 362 306 362 217 q 362 169 384 143 q 406 117 447 117 q 491 117 527 150 q 562 182 575 234 z"},".":{"x_min":0,"x_max":310,"ha":310,"o":"m 155 -8 q 123 -8 99 15 q 76 38 76 71 q 76 104 99 126 q 122 149 155 149 q 188 149 211 126 q 234 104 234 71 q 234 38 211 15 q 188 -8 155 -8 z"},"p":{"x_min":0,"x_max":521,"ha":521,"o":"m 204 373 l 204 60 q 276 61 307 97 q 338 133 338 216 q 338 299 307 336 q 275 372 204 373 z m 204 -183 l 62 -183 l 62 433 l 226 433 q 356 433 424 374 q 491 315 491 202 q 491 99 431 49 q 370 -1 247 -1 q 229 -1 221 -1 q 212 0 204 0 z"},"X":{"x_min":0,"x_max":558,"ha":558,"o":"m 5 653 l 207 653 l 310 461 l 430 653 l 529 653 l 356 385 l 571 0 l 369 0 l 248 222 l 107 0 l 10 0 l 202 299 z"},"*":{"x_min":0,"x_max":528,"ha":528,"o":"m 279 503 l 412 578 l 440 490 l 289 473 l 402 369 l 327 315 l 264 455 l 200 315 l 126 370 l 239 473 l 87 491 l 116 578 l 248 503 l 217 653 l 310 653 z"},"Y":{"x_min":0,"x_max":525,"ha":525,"o":"m 174 0 l 174 309 l -17 653 l 186 653 l 313 403 l 450 653 l 545 653 l 359 319 l 359 0 z"},"c":{"x_min":0,"x_max":447,"ha":447,"o":"m 426 108 q 398 47 352 16 q 306 -16 244 -16 q 149 -16 90 48 q 30 112 30 214 q 30 316 92 382 q 153 447 248 447 q 313 447 357 419 q 401 391 421 336 l 360 301 q 350 341 329 362 q 308 382 278 382 q 232 382 208 340 q 184 297 184 217 q 184 130 205 91 q 225 52 270 52 q 303 52 331 76 q 358 100 370 140 z"},"!":{"x_min":0,"x_max":333,"ha":333,"o":"m 151 179 l 91 554 q 89 564 89 572 q 88 581 88 587 q 88 625 108 646 q 129 668 166 668 q 203 668 224 646 q 245 625 245 587 q 245 581 244 572 q 244 564 242 554 l 181 179 z m 166 -8 q 134 -8 112 14 q 90 36 90 68 q 90 100 112 122 q 134 144 166 144 q 197 144 220 122 q 242 100 242 68 q 242 37 220 14 q 197 -8 166 -8 z"},"/":{"x_min":0,"x_max":282,"ha":282,"o":"m -1 -93 l 216 667 l 283 667 l 66 -93 z"},"[":{"x_min":0,"x_max":394,"ha":394,"o":"m 124 653 l 337 653 l 337 597 l 259 597 l 259 -156 l 337 -156 l 337 -212 l 124 -212 z"},"6":{"x_min":0,"x_max":567,"ha":567,"o":"m 342 205 q 342 258 326 287 q 311 317 284 317 q 254 317 236 278 q 218 240 218 175 q 218 124 233 94 q 249 64 274 64 q 305 64 323 102 q 342 140 342 205 z m 278 387 q 294 393 311 395 q 329 398 347 398 q 426 398 473 351 q 520 303 520 223 q 520 121 447 52 q 375 -16 265 -16 q 162 -16 101 40 q 39 95 39 188 q 39 229 56 289 q 72 348 105 424 l 205 653 l 393 653 z"},"r":{"x_min":0,"x_max":481,"ha":481,"o":"m 65 0 l 65 433 l 254 433 q 341 433 387 400 q 432 367 432 304 q 432 261 412 233 q 392 206 351 195 l 478 0 l 313 0 l 215 204 l 215 212 q 255 218 274 238 q 293 258 293 296 q 293 334 273 354 q 253 373 214 373 q 208 373 205 373 q 201 373 198 372 l 198 0 z"},"2":{"x_min":0,"x_max":574,"ha":574,"o":"m 44 0 l 44 82 l 138 188 q 150 202 173 228 q 344 417 344 486 q 344 530 317 557 q 290 585 247 585 q 196 585 164 550 q 133 516 133 458 l 133 456 l 44 456 q 49 556 111 611 q 172 667 276 667 q 380 667 444 605 q 509 544 509 446 q 509 412 500 380 q 490 348 472 320 q 447 282 399 227 q 351 171 270 88 l 520 88 l 520 0 z"},"{":{"x_min":0,"x_max":500,"ha":500,"o":"m 427 721 l 427 634 q 423 634 415 634 q 407 635 404 635 q 351 635 332 615 q 313 594 313 530 l 313 412 q 313 336 292 304 q 270 272 214 259 q 270 246 291 214 q 313 182 313 106 l 313 -11 q 313 -76 332 -96 q 352 -117 405 -117 q 408 -117 416 -117 q 423 -116 427 -116 l 427 -202 l 396 -202 q 346 -202 315 -196 q 284 -190 263 -178 q 235 -162 224 -131 q 213 -101 213 -32 l 213 89 q 213 159 187 188 q 162 217 100 217 q 97 217 90 216 q 83 216 79 216 l 79 303 q 83 303 90 302 q 97 302 100 302 q 162 302 187 331 q 213 359 213 429 l 213 550 q 213 621 224 651 q 235 681 263 697 q 285 710 316 716 q 348 721 405 721 z"},"9":{"x_min":0,"x_max":567,"ha":567,"o":"m 219 458 q 219 411 233 384 q 248 356 271 356 q 301 356 319 391 q 337 427 337 487 q 337 534 322 562 q 308 589 283 589 q 253 589 236 554 q 219 519 219 458 z m 290 285 q 269 279 252 277 q 236 274 222 274 q 143 274 97 319 q 51 364 51 442 q 51 537 121 602 q 192 667 296 667 q 396 667 456 611 q 515 556 515 462 q 515 383 451 248 q 445 236 442 230 l 333 0 l 147 0 z"}," ":{"x_min":0,"x_max":309,"ha":309,"o":""},"I":{"x_min":0,"x_max":345,"ha":345,"o":"m 264 0 l 81 0 l 81 653 l 264 653 z"},"H":{"x_min":0,"x_max":720,"ha":720,"o":"m 458 374 l 458 653 l 641 653 l 641 0 l 458 0 l 458 286 l 262 286 l 262 0 l 79 0 l 79 653 l 262 653 l 262 374 z"},"4":{"x_min":0,"x_max":618,"ha":618,"o":"m 320 227 l 320 493 l 134 227 z m 320 0 l 320 139 l 28 139 l 28 227 l 326 653 l 493 653 l 493 227 l 575 227 l 575 139 l 493 139 l 493 0 z"},"~":{"x_min":0,"x_max":833,"ha":833,"o":"m 747 383 l 747 293 q 697 258 651 241 q 604 224 561 224 q 540 224 516 228 q 492 232 468 241 q 456 245 431 254 q 327 290 275 290 q 235 290 190 271 q 145 253 87 212 l 87 303 q 139 338 186 356 q 232 373 276 373 q 306 373 337 367 q 368 361 419 344 q 426 342 440 336 q 520 308 562 308 q 604 308 648 326 q 693 344 747 383 z"},"D":{"x_min":0,"x_max":745,"ha":745,"o":"m 262 565 l 262 88 l 325 88 q 416 88 465 150 q 514 212 514 326 q 514 440 465 503 q 415 565 325 565 z m 79 0 l 79 653 l 300 653 q 396 653 456 639 q 515 625 563 593 q 633 546 672 476 q 711 405 711 325 q 711 249 681 183 q 651 118 594 70 q 553 36 498 18 q 442 0 378 0 z"},"^":{"x_min":0,"x_max":1000,"ha":1000,"o":"m 447 713 l 553 713 l 795 439 l 694 439 l 500 633 l 305 439 l 204 439 z"},"0":{"x_min":0,"x_max":618,"ha":618,"o":"m 406 319 q 406 460 382 525 q 359 591 309 591 q 261 591 237 526 q 213 462 213 332 q 213 190 236 125 q 259 59 309 59 q 357 59 382 125 q 406 190 406 319 z m 338 667 q 454 667 520 584 q 586 501 586 354 q 586 277 566 212 q 545 147 506 97 q 462 42 404 13 q 347 -16 281 -16 q 166 -16 99 64 q 32 144 32 284 q 32 455 118 561 q 203 667 338 667 z"},"F":{"x_min":0,"x_max":539,"ha":539,"o":"m 79 0 l 79 653 l 497 653 l 497 565 l 262 565 l 262 375 l 486 375 l 486 287 l 262 287 l 262 0 z"},"`":{"x_min":0,"x_max":500,"ha":500,"o":"m 320 501 l 261 501 l 122 671 l 220 671 z"},"k":{"x_min":0,"x_max":478,"ha":478,"o":"m 331 0 l 215 209 l 345 433 l 431 433 l 338 268 l 487 0 z m 67 0 l 67 699 l 208 699 l 208 0 z"},"u":{"x_min":0,"x_max":472,"ha":472,"o":"m 62 433 l 203 433 l 203 169 q 203 110 219 86 q 235 62 272 62 q 310 62 326 86 q 342 110 342 169 l 342 433 l 412 433 l 412 153 q 412 68 368 26 q 325 -16 237 -16 q 147 -16 105 25 q 62 66 62 153 z"},"]":{"x_min":0,"x_max":394,"ha":394,"o":"m 270 -212 l 57 -212 l 57 -156 l 135 -156 l 135 597 l 57 597 l 57 653 l 270 653 z"},"U":{"x_min":0,"x_max":660,"ha":660,"o":"m 76 653 l 259 653 l 259 266 q 259 170 286 131 q 313 92 378 92 q 442 92 469 131 q 496 169 496 266 l 496 653 l 589 653 l 589 237 q 589 110 525 47 q 461 -16 333 -16 q 275 -16 222 3 q 169 21 137 53 q 104 85 90 126 q 76 167 76 237 z"},"o":{"x_min":0,"x_max":503,"ha":503,"o":"m 321 212 q 321 300 303 345 q 285 389 249 389 q 215 389 199 347 q 182 305 182 219 q 182 130 200 86 q 218 41 254 41 q 288 41 304 83 q 321 126 321 212 z m 252 -16 q 157 -16 93 53 q 30 123 30 227 q 30 327 90 387 q 151 447 252 447 q 347 447 410 377 q 473 308 473 203 q 473 103 413 43 q 354 -16 252 -16 z"},"N":{"x_min":0,"x_max":674,"ha":674,"o":"m 79 0 l 79 653 l 280 653 l 496 319 l 496 653 l 594 653 l 594 0 l 488 0 l 176 477 l 176 0 z"},"+":{"x_min":0,"x_max":833,"ha":833,"o":"m 375 596 l 458 596 l 458 339 l 709 339 l 709 258 l 458 258 l 458 0 l 375 0 l 375 258 l 124 258 l 124 339 l 375 339 z"},"G":{"x_min":0,"x_max":735,"ha":735,"o":"m 709 103 q 642 45 560 14 q 478 -16 388 -16 q 319 -16 261 3 q 203 22 157 60 q 96 110 65 177 q 35 243 35 328 q 35 401 66 469 q 96 537 151 584 q 199 625 259 646 q 320 667 390 667 q 480 667 547 631 q 613 595 662 520 l 579 459 q 549 522 506 554 q 463 586 408 586 q 324 586 277 518 q 231 450 231 325 q 231 212 283 141 q 335 71 419 71 q 450 71 478 80 q 505 90 531 109 l 531 291 l 709 291 z"},"q":{"x_min":0,"x_max":503,"ha":503,"o":"m 184 -75 l 184 -6 q 113 19 71 81 q 30 144 30 227 q 30 327 90 387 q 151 447 252 447 q 347 447 410 377 q 473 308 473 203 q 473 122 433 67 q 394 13 319 -9 l 319 -75 z m 321 212 q 321 300 303 345 q 285 389 249 389 q 215 389 199 347 q 182 305 182 219 q 182 130 200 86 q 218 41 254 41 q 288 41 304 83 q 321 126 321 212 z"},"d":{"x_min":0,"x_max":521,"ha":521,"o":"m 317 373 q 246 372 214 336 q 183 299 183 216 q 183 133 214 97 q 245 61 317 60 z m 458 699 l 458 0 l 276 0 q 156 0 93 53 q 30 107 30 209 q 30 317 98 375 q 167 433 295 433 l 317 433 l 317 699 z"},"1":{"x_min":0,"x_max":618,"ha":618,"o":"m 226 0 l 226 570 l 98 550 l 98 613 l 400 662 l 400 0 z"},"5":{"x_min":0,"x_max":523,"ha":523,"o":"m 44 0 l 251 310 q 257 319 261 328 q 264 337 264 345 q 264 358 255 365 q 246 372 228 372 l 59 372 l 59 653 l 455 653 l 455 569 l 237 569 l 237 443 l 347 443 q 404 443 434 419 q 465 395 465 351 q 465 331 458 309 q 452 288 440 270 l 261 0 z"}}}
